classDiagram\nclass Model01_combine_meshes {\n  P()\n  addpath()\n  assign_initial_conductivities()\n  clean_coincident_facets()\n  disp()\n  length()\n  load()\n  meshareas()\n  meshlaplace3D()\n  meshreorient()\n  neighbors()\n  pad_neighbor_triangles()\n  repmat()\n  save()\n  size()\n  strcat()\n  t()\n  tissue_index_read()\n  triangulation()\n}\nModel01_combine_meshes --> P\nModel01_combine_meshes --> addpath\nModel01_combine_meshes --> assign_initial_conductivities\nModel01_combine_meshes --> clean_coincident_facets\nModel01_combine_meshes --> disp\nModel01_combine_meshes --> length\nModel01_combine_meshes --> load\nModel01_combine_meshes --> meshareas\nModel01_combine_meshes --> meshlaplace3D\nModel01_combine_meshes --> meshreorient\nModel01_combine_meshes --> neighbors\nModel01_combine_meshes --> pad_neighbor_triangles\nModel01_combine_meshes --> repmat\nModel01_combine_meshes --> save\nModel01_combine_meshes --> size\nModel01_combine_meshes --> strcat\nModel01_combine_meshes --> t\nModel01_combine_meshes --> tissue_index_read\nModel01_combine_meshes --> triangulation\n